#N canvas -2152 -289 1209 842 10;
#X msg 84 765 disconnect;
#X obj 76 792 netsend -u -b;
#X obj 77 691 list prepend send;
#X obj 77 716 list trim;
#X text 179 765 don't send;
#X text 272 740 send as UDP;
#X obj 81 223 vsl 40 128 0 255 0 0 empty empty empty 0 -9 0 10 -258113
-1 -1 3700 1;
#X obj 130 222 vsl 40 128 0 255 0 0 empty empty empty 0 -9 0 10 -4034
-1 -1 1600 1;
#X obj 177 223 vsl 40 128 0 255 0 0 empty empty empty 0 -9 0 10 -4160
-1 -1 5600 1;
#X obj 77 391 t f b;
#X obj 126 390 t f b;
#X obj 173 389 t f b;
#X obj 33 415 t b;
#X obj 46 450 i;
#X obj 96 452 i;
#X obj 143 450 i;
#X floatatom 44 478 5 0 0 0 - - -, f 5;
#X floatatom 94 477 5 0 0 0 - - -, f 5;
#X floatatom 142 481 5 0 0 0 - - -, f 5;
#X obj 238 222 vsl 40 128 0 255 0 0 empty empty empty 0 -9 0 10 -262144
-1 -1 12700 1;
#X obj 223 388 t f b;
#X obj 199 452 i;
#X floatatom 198 477 5 0 0 0 - - -, f 5;
#X obj 88 512 pack f f f f;
#X obj 83 637 oscformat -f iiiii /light;
#X msg 85 741 connect 192.168.1.100 8888;
#X obj 261 690 loadbang;
#X obj 150 575 print light:;
#X connect 0 0 1 0;
#X connect 2 0 3 0;
#X connect 3 0 1 0;
#X connect 6 0 9 0;
#X connect 7 0 10 0;
#X connect 8 0 11 0;
#X connect 9 0 13 1;
#X connect 9 1 12 0;
#X connect 10 0 14 1;
#X connect 10 1 12 0;
#X connect 11 0 15 1;
#X connect 11 1 12 0;
#X connect 12 0 13 0;
#X connect 12 0 14 0;
#X connect 12 0 15 0;
#X connect 12 0 21 0;
#X connect 13 0 16 0;
#X connect 13 0 23 0;
#X connect 14 0 17 0;
#X connect 14 0 23 1;
#X connect 15 0 18 0;
#X connect 15 0 23 2;
#X connect 19 0 20 0;
#X connect 20 0 21 1;
#X connect 20 1 12 0;
#X connect 21 0 22 0;
#X connect 22 0 23 3;
#X connect 23 0 24 0;
#X connect 23 0 27 0;
#X connect 24 0 2 0;
#X connect 25 0 1 0;
#X connect 26 0 25 0;
